HIERARCHY
ROOT hips
{
	OFFSET -0.003675 0.299928 -0.021708
	CHANNELS 6 Xposition Yposition Zposition Xrotation Yrotation Zrotation
	JOINT LowerBack
	{
		OFFSET 0.000919 0.177588 0.009275
		CHANNELS 3 Xrotation Yrotation Zrotation
		JOINT spine
		{
			OFFSET 0.000919 0.177588 0.009275
			CHANNELS 3 Xrotation Yrotation Zrotation
			JOINT chest
			{
				OFFSET 0.000456 0.100015 0.004638
				CHANNELS 3 Xrotation Yrotation Zrotation
				JOINT neck
				{
					OFFSET 0.000456 0.100015 0.004638
					CHANNELS 3 Xrotation Yrotation Zrotation
					JOINT head
					{
						OFFSET 0.000924 0.155147 0.009274
						CHANNELS 6 Xposition Yposition Zposition Xrotation Yrotation Zrotation
						End Site
						{
							OFFSET 0.000000 0.153400 0.000000
						}
					}
				}
				JOINT shoulder.L
				{
					OFFSET 0.019937 0.078966 0.057518
					CHANNELS 6 Xposition Yposition Zposition Yrotation Xrotation Zrotation
					JOINT upper_arm.L
					{
						OFFSET 0.177024 -0.020465 -0.095062
						CHANNELS 6 Xposition Yposition Zposition Xrotation Yrotation Zrotation
						JOINT forearm.L
						{
							OFFSET 0.247100 -0.135500 -0.061800
							CHANNELS 3 Xrotation Yrotation Zrotation
							JOINT hand.L
							{
								OFFSET 0.217000 -0.143000 0.039300
								CHANNELS 3 Xrotation Yrotation Zrotation
								JOINT palm.01.L
								{
									OFFSET 0.021770 -0.038291 0.012954
									CHANNELS 6 Xposition Yposition Zposition Yrotation Xrotation Zrotation
									JOINT f_index.01.L
									{
										OFFSET 0.053215 -0.044137 0.008236
										CHANNELS 3 Xrotation Yrotation Zrotation
										JOINT f_index.02.L
										{
											OFFSET 0.036108 -0.024723 -0.010656
											CHANNELS 3 Xrotation Yrotation Zrotation
											JOINT f_index.03.L
											{
												OFFSET 0.021342 -0.014948 -0.010846
												CHANNELS 3 Xrotation Yrotation Zrotation
												End Site
												{
													OFFSET 0.015600 -0.009860 -0.013421
												}
											}
										}
									}
									JOINT thumb.01.L
									{
										OFFSET -0.009090 -0.002348 -0.024223
										CHANNELS 6 Xposition Yposition Zposition Xrotation Yrotation Zrotation
										JOINT thumb.02.L
										{
											OFFSET 0.019713 -0.035076 -0.011120
											CHANNELS 3 Xrotation Yrotation Zrotation
											JOINT thumb.03.L
											{
												OFFSET 0.024877 -0.021748 -0.005176
												CHANNELS 3 Xrotation Yrotation Zrotation
												End Site
												{
													OFFSET 0.016125 -0.013029 -0.001569
												}
											}
										}
									}
								}
								JOINT palm.02.L
								{
									OFFSET 0.032823 -0.025104 0.012281
									CHANNELS 6 Xposition Yposition Zposition Yrotation Xrotation Zrotation
									JOINT f_middle.01.L
									{
										OFFSET 0.055723 -0.038469 0.008037
										CHANNELS 3 Xrotation Yrotation Zrotation
										JOINT f_middle.02.L
										{
											OFFSET 0.038167 -0.027473 -0.015582
											CHANNELS 3 Xrotation Yrotation Zrotation
											JOINT f_middle.03.L
											{
												OFFSET 0.021707 -0.016587 -0.017037
												CHANNELS 3 Xrotation Yrotation Zrotation
												End Site
												{
													OFFSET 0.014112 -0.010584 -0.014294
												}
											}
										}
									}
								}
								JOINT palm.03.L
								{
									OFFSET 0.039230 -0.011402 0.008390
									CHANNELS 6 Xposition Yposition Zposition Yrotation Xrotation Zrotation
									JOINT f_ring.01.L
									{
										OFFSET 0.061796 -0.031470 0.007910
										CHANNELS 3 Xrotation Yrotation Zrotation
										JOINT f_ring.02.L
										{
											OFFSET 0.033092 -0.023401 -0.019127
											CHANNELS 3 Xrotation Yrotation Zrotation
											JOINT f_ring.03.L
											{
												OFFSET 0.021392 -0.015362 -0.017824
												CHANNELS 3 Xrotation Yrotation Zrotation
												End Site
												{
													OFFSET 0.008670 -0.007297 -0.014686
												}
											}
										}
									}
								}
								JOINT palm.04.L
								{
									OFFSET 0.043417 0.002450 0.002889
									CHANNELS 6 Xposition Yposition Zposition Yrotation Xrotation Zrotation
									JOINT f_pinky.01.L
									{
										OFFSET 0.069986 -0.026156 0.003627
										CHANNELS 3 Xrotation Yrotation Zrotation
										JOINT f_pinky.02.L
										{
											OFFSET 0.018520 -0.012813 -0.016429
											CHANNELS 3 Xrotation Yrotation Zrotation
											JOINT f_pinky.03.L
											{
												OFFSET 0.013822 -0.009796 -0.014947
												CHANNELS 3 Xrotation Yrotation Zrotation
												End Site
												{
													OFFSET 0.007238 -0.006103 -0.011657
												}
											}
										}
									}
								}
							}
						}
					}
				}
				JOINT shoulder.R
				{
					OFFSET -0.016662 0.078957 0.057696
					CHANNELS 6 Xposition Yposition Zposition Yrotation Xrotation Zrotation
					JOINT upper_arm.R
					{
						OFFSET -0.176972 -0.020537 -0.095144
						CHANNELS 6 Xposition Yposition Zposition Xrotation Yrotation Zrotation
						JOINT forearm.R
						{
							OFFSET -0.247100 -0.135500 -0.061800
							CHANNELS 3 Xrotation Yrotation Zrotation
							JOINT hand.R
							{
								OFFSET -0.217000 -0.143000 0.039300
								CHANNELS 3 Xrotation Yrotation Zrotation
								JOINT palm.01.R
								{
									OFFSET -0.021773 -0.038278 0.012988
									CHANNELS 6 Xposition Yposition Zposition Yrotation Xrotation Zrotation
									JOINT f_index.01.R
									{
										OFFSET -0.053212 -0.044139 0.008249
										CHANNELS 3 Xrotation Yrotation Zrotation
										JOINT f_index.02.R
										{
											OFFSET -0.036049 -0.024835 -0.010634
											CHANNELS 3 Xrotation Yrotation Zrotation
											JOINT f_index.03.R
											{
												OFFSET -0.021371 -0.014881 -0.010866
												CHANNELS 3 Xrotation Yrotation Zrotation
												End Site
												{
													OFFSET -0.015584 -0.009883 -0.013422
												}
											}
										}
									}
									JOINT thumb.01.R
									{
										OFFSET 0.009113 -0.002381 -0.024211
										CHANNELS 6 Xposition Yposition Zposition Xrotation Yrotation Zrotation
										JOINT thumb.02.R
										{
											OFFSET -0.019694 -0.035097 -0.011088
											CHANNELS 3 Xrotation Yrotation Zrotation
											JOINT thumb.03.R
											{
												OFFSET -0.024867 -0.021762 -0.005168
												CHANNELS 3 Xrotation Yrotation Zrotation
												End Site
												{
													OFFSET -0.016120 -0.013036 -0.001565
												}
											}
										}
									}
								}
								JOINT palm.02.R
								{
									OFFSET -0.032828 -0.025095 0.012286
									CHANNELS 6 Xposition Yposition Zposition Yrotation Xrotation Zrotation
									JOINT f_middle.01.R
									{
										OFFSET -0.055721 -0.038472 0.008040
										CHANNELS 3 Xrotation Yrotation Zrotation
										JOINT f_middle.02.R
										{
											OFFSET -0.038101 -0.027593 -0.015557
											CHANNELS 3 Xrotation Yrotation Zrotation
											JOINT f_middle.03.R
											{
												OFFSET -0.021730 -0.016530 -0.017054
												CHANNELS 3 Xrotation Yrotation Zrotation
												End Site
												{
													OFFSET -0.014096 -0.010608 -0.014293
												}
											}
										}
									}
								}
								JOINT palm.03.R
								{
									OFFSET -0.039192 -0.011488 0.008390
									CHANNELS 6 Xposition Yposition Zposition Yrotation Xrotation Zrotation
									JOINT f_ring.01.R
									{
										OFFSET -0.061839 -0.031387 0.007876
										CHANNELS 3 Xrotation Yrotation Zrotation
										JOINT f_ring.02.R
										{
											OFFSET -0.033068 -0.023437 -0.019125
											CHANNELS 3 Xrotation Yrotation Zrotation
											JOINT f_ring.03.R
											{
												OFFSET -0.021371 -0.015393 -0.017822
												CHANNELS 3 Xrotation Yrotation Zrotation
												End Site
												{
													OFFSET -0.008654 -0.007321 -0.014684
												}
											}
										}
									}
								}
								JOINT palm.04.R
								{
									OFFSET -0.043421 0.002443 0.002845
									CHANNELS 6 Xposition Yposition Zposition Yrotation Xrotation Zrotation
									JOINT f_pinky.01.R
									{
										OFFSET -0.069983 -0.026169 0.003599
										CHANNELS 3 Xrotation Yrotation Zrotation
										JOINT f_pinky.02.R
										{
											OFFSET -0.018501 -0.012842 -0.016428
											CHANNELS 3 Xrotation Yrotation Zrotation
											JOINT f_pinky.03.R
											{
												OFFSET -0.013806 -0.009821 -0.014946
												CHANNELS 3 Xrotation Yrotation Zrotation
												End Site
												{
													OFFSET -0.007226 -0.006121 -0.011655
												}
											}
										}
									}
								}
							}
						}
					}
				}
			}
		}
	}
	JOINT pelvis.L
	{
		OFFSET 0.000000 0.000000 0.000000
		CHANNELS 6 Xposition Yposition Zposition Xrotation Yrotation Zrotation
		JOINT thigh.L
		{
			OFFSET 0.101675 0.001054 -0.000000
			CHANNELS 3 Xrotation Yrotation Zrotation
			JOINT shin.L
			{
				OFFSET 0.000000 -0.534800 0.041000
				CHANNELS 3 Xrotation Yrotation Zrotation
				JOINT foot.L
				{
					OFFSET 0.000000 -0.452000 -0.044800
					CHANNELS 3 Xrotation Yrotation Zrotation
					JOINT toe.L
					{
						OFFSET -0.000000 -0.068500 0.109600
						CHANNELS 3 Xrotation Yrotation Zrotation
						End Site
						{
							OFFSET -0.000000 0.000000 0.067200
						}
					}
				}
				JOINT heel.L
				{
					OFFSET 0.000000 -0.452000 -0.044800
					CHANNELS 3 Xrotation Yrotation Zrotation
					JOINT heel.02.L
					{
						OFFSET -0.038000 -0.085200 0.016200
						CHANNELS 6 Xposition Yposition Zposition Xrotation Yrotation Zrotation
						End Site
						{
							OFFSET 0.080000 -0.000000 0.000000
						}
					}
				}
			}
		}
	}
	JOINT pelvis.R
	{
		OFFSET 0.000000 0.000000 0.000000
		CHANNELS 6 Xposition Yposition Zposition Xrotation Yrotation Zrotation
		JOINT thigh.R
		{
			OFFSET -0.094325 0.001054 0.000000
			CHANNELS 3 Xrotation Yrotation Zrotation
			JOINT shin.R
			{
				OFFSET 0.000000 -0.534800 0.041000
				CHANNELS 3 Xrotation Yrotation Zrotation
				JOINT foot.R
				{
					OFFSET 0.000000 -0.452000 -0.044800
					CHANNELS 3 Xrotation Yrotation Zrotation
					JOINT toe.R
					{
						OFFSET -0.000000 -0.068500 0.109600
						CHANNELS 3 Xrotation Yrotation Zrotation
						End Site
						{
							OFFSET -0.000000 0.000000 0.067200
						}
					}
				}
				JOINT heel.R
				{
					OFFSET 0.000000 -0.452000 -0.044800
					CHANNELS 3 Xrotation Yrotation Zrotation
					JOINT heel.02.R
					{
						OFFSET 0.038000 -0.085200 0.016200
						CHANNELS 6 Xposition Yposition Zposition Xrotation Yrotation Zrotation
						End Site
						{
							OFFSET -0.080000 0.000000 -0.000000
						}
					}
				}
			}
		}
	}
}
MOTION
Frames: 4
Frame Time: 0.041667
0.000593 0.200705 0.004571 35.314134 1.947308 76.638506 -0.000000 0.000002 0.000001 -0.000000 -0.000000 0.000001 0.000000 0.000003 -0.000001 0.000001 0.000001 -0.000002 0.000924 0.155147 0.009274 2.062321 -0.039536 -29.947285 0.019937 0.078966 0.057518 17.543337 6.307909 41.883656 0.177025 -0.020465 -0.095062 0.861530 12.793517 8.683010 17.622645 -7.709250 84.780044 -0.000004 0.000001 -0.000003 0.021770 -0.038291 0.012954 -0.000000 0.000000 0.000001 0.000002 -0.000003 0.000001 -0.000000 -0.000001 0.000005 -0.000001 0.000001 0.000000 -0.009090 -0.002348 -0.024224 0.000002 -0.000001 -0.000003 -0.000001 -0.000001 0.000006 -0.000001 -0.000002 -0.000001 0.032823 -0.025104 0.012281 0.000001 -0.000001 0.000007 0.000001 0.000004 -0.000005 -0.000005 0.000001 0.000003 -0.000000 0.000003 -0.000001 0.039230 -0.011402 0.008390 0.000002 -0.000000 0.000004 0.000002 0.000003 -0.000004 0.000002 0.000005 0.000001 -0.000000 -0.000005 0.000003 0.043417 0.002450 0.002889 -0.000001 -0.000000 0.000000 -0.000004 -0.000006 -0.000002 -0.000002 0.000001 -0.000005 -0.000001 0.000000 -0.000003 -0.016662 0.078957 0.057696 0.196932 2.165395 -35.208112 -0.176972 -0.020537 -0.095144 -15.289256 -5.446943 22.989083 29.062025 5.895021 -99.463626 0.000003 0.000002 0.000001 -0.021773 -0.038278 0.012988 0.000003 -0.000002 -0.000003 -0.000002 0.000003 0.000002 -0.000002 -0.000001 -0.000010 0.000002 0.000004 0.000003 0.009114 -0.002381 -0.024211 0.000000 -0.000002 0.000004 -0.000000 -0.000004 -0.000002 0.000004 0.000005 0.000003 -0.032828 -0.025095 0.012286 0.000003 -0.000003 0.000001 -0.000002 0.000000 -0.000001 -0.000000 -0.000005 -0.000001 0.000000 0.000003 -0.000002 -0.039192 -0.011488 0.008390 0.000001 0.000000 0.000001 -0.000002 0.000003 -0.000005 -0.000004 -0.000006 -0.000000 -0.000005 0.000002 -0.000003 -0.043421 0.002443 0.002845 0.000000 -0.000002 0.000000 -0.000008 0.000005 -0.000001 -0.000005 0.000001 0.000000 0.000002 -0.000000 0.000001 -0.000000 0.000000 0.000000 -2.158893 1.370019 -15.802630 69.759775 -0.791854 -13.577332 -25.900764 -0.111505 1.127129 0.000000 -0.000001 -0.000001 -0.000002 -0.000008 -0.000001 0.000005 -0.000001 -0.000000 -0.038000 -0.085200 0.016200 0.000000 -0.000003 -0.000000 -0.000000 0.000000 0.000000 -2.061873 1.343651 -14.570745 60.261673 -0.413372 -1.925862 -22.026962 0.783363 -7.929082 0.000002 -0.000000 0.000001 0.000001 -0.000000 -0.000001 0.000005 0.000001 0.000002 0.038000 -0.085200 0.016200 -0.000000 0.000001 0.000002 
0.000268 0.201007 0.005295 33.720924 1.631902 77.252622 -0.000001 0.000003 0.000001 0.000000 0.000001 -0.000001 -0.000000 -0.000002 -0.000000 -0.000000 -0.000004 -0.000001 0.000924 0.155147 0.009274 2.701411 -0.042766 -30.547150 0.019937 0.078966 0.057518 14.907899 5.386927 40.955822 0.177024 -0.020465 -0.095062 0.052989 8.568291 12.696421 11.636786 -1.462809 84.039768 -0.000002 0.000000 -0.000002 0.021770 -0.038291 0.012954 -0.000001 0.000001 0.000003 -0.000003 -0.000000 0.000003 -0.000001 -0.000002 0.000006 -0.000003 0.000001 -0.000000 -0.009090 -0.002348 -0.024223 0.000001 0.000000 -0.000003 -0.000001 -0.000000 0.000001 -0.000000 0.000001 -0.000002 0.032823 -0.025104 0.012281 -0.000000 -0.000000 0.000004 -0.000002 0.000003 -0.000003 -0.000003 -0.000002 0.000003 -0.000003 -0.000000 0.000000 0.039230 -0.011402 0.008390 -0.000001 0.000002 0.000006 0.000002 0.000002 -0.000000 0.000001 0.000003 0.000003 0.000001 0.000001 0.000005 0.043417 0.002450 0.002889 0.000000 0.000001 -0.000000 0.000000 -0.000006 -0.000000 -0.000002 0.000003 0.000001 -0.000002 -0.000003 -0.000000 -0.016662 0.078956 0.057696 0.653842 1.781045 -34.957243 -0.176972 -0.020537 -0.095144 -11.573740 -6.214712 17.487596 34.462566 2.725066 -105.992201 -0.000003 0.000000 0.000000 -0.021773 -0.038278 0.012988 -0.000001 -0.000002 0.000002 -0.000002 -0.000001 -0.000003 -0.000003 0.000003 -0.000004 0.000004 0.000000 0.000003 0.009114 -0.002381 -0.024212 0.000001 -0.000004 -0.000003 -0.000001 -0.000001 0.000005 0.000004 0.000005 -0.000006 -0.032828 -0.025095 0.012286 -0.000003 0.000001 -0.000001 -0.000001 0.000002 -0.000001 -0.000000 0.000002 0.000000 -0.000003 -0.000003 -0.000004 -0.039192 -0.011488 0.008390 0.000000 0.000000 -0.000000 0.000003 0.000001 -0.000002 0.000002 0.000003 -0.000001 -0.000001 0.000002 -0.000003 -0.043421 0.002443 0.002845 -0.000004 -0.000001 -0.000001 -0.000007 0.000005 -0.000001 -0.000001 -0.000003 0.000002 0.000005 0.000003 0.000002 -0.000000 0.000000 0.000000 -2.210383 1.374178 -15.700648 70.014131 -0.731358 -12.791238 -26.005409 -0.129933 1.313123 -0.000002 0.000001 -0.000002 -0.000001 -0.000003 0.000000 -0.000002 -0.000001 -0.000004 -0.038000 -0.085200 0.016200 -0.000000 -0.000001 0.000000 -0.000000 0.000000 0.000000 -2.111545 1.347503 -14.468820 61.434157 -0.385966 -1.504202 -22.967988 0.694128 -7.020903 0.000000 -0.000003 0.000000 0.000004 -0.000004 0.000004 0.000009 0.000000 0.000002 0.038000 -0.085200 0.016200 0.000000 -0.000002 0.000000 
-0.001277 0.203792 0.005337 31.812354 1.845595 79.872191 -0.000000 -0.000003 0.000000 0.000000 -0.000001 -0.000001 0.000001 -0.000003 -0.000002 0.000001 -0.000003 -0.000002 0.000924 0.155148 0.009274 1.026492 -0.032640 -28.397278 0.019937 0.078966 0.057518 10.238441 4.811231 43.067129 0.177024 -0.020465 -0.095062 0.452726 4.010845 18.747199 8.940590 -16.388825 58.154341 -0.000001 0.000003 -0.000001 0.021770 -0.038291 0.012954 -0.000004 -0.000004 -0.000002 0.000001 0.000002 -0.000002 0.000000 -0.000000 0.000007 0.000001 0.000003 0.000000 -0.009090 -0.002348 -0.024223 0.000003 -0.000000 -0.000001 0.000000 -0.000002 0.000003 0.000001 -0.000001 0.000001 0.032823 -0.025104 0.012281 -0.000005 -0.000003 0.000005 0.000003 0.000001 -0.000003 -0.000005 -0.000000 -0.000000 -0.000001 0.000001 0.000003 0.039230 -0.011402 0.008390 -0.000004 -0.000003 0.000004 0.000003 0.000003 -0.000002 0.000001 0.000000 0.000004 -0.000000 -0.000004 0.000003 0.043417 0.002450 0.002889 -0.000001 -0.000002 -0.000005 0.000001 -0.000003 -0.000000 0.000002 -0.000002 0.000003 -0.000002 -0.000001 -0.000001 -0.016662 0.078957 0.057696 0.150803 1.967536 -35.817000 -0.176972 -0.020537 -0.095144 -14.203000 4.463661 4.529615 17.616923 19.287112 -71.578900 -0.000001 0.000000 -0.000002 -0.021773 -0.038278 0.012988 0.000000 -0.000002 -0.000003 -0.000003 0.000002 -0.000003 -0.000005 -0.000000 -0.000006 0.000001 -0.000002 0.000001 0.009114 -0.002381 -0.024211 -0.000001 0.000002 0.000003 0.000001 -0.000002 0.000007 0.000002 -0.000003 -0.000003 -0.032828 -0.025095 0.012286 0.000004 -0.000001 -0.000003 -0.000002 0.000003 0.000001 -0.000000 0.000001 -0.000002 0.000000 -0.000000 -0.000002 -0.039192 -0.011488 0.008390 0.000000 -0.000000 -0.000000 -0.000003 0.000003 0.000000 -0.000003 0.000000 -0.000000 0.000001 -0.000001 -0.000000 -0.043421 0.002442 0.002844 0.000000 -0.000000 0.000000 -0.000004 0.000007 -0.000003 0.000000 -0.000006 0.000004 -0.000002 -0.000003 0.000001 0.000000 0.000000 0.000000 -2.229171 1.558691 -17.514593 66.585486 -0.742597 -12.880517 -20.194411 -0.096741 0.978129 -0.000005 -0.000001 0.000000 -0.000006 -0.000001 -0.000002 -0.000002 -0.000001 0.000001 -0.038000 -0.085200 0.016200 0.000002 -0.000003 -0.000002 -0.000000 0.000000 0.000000 -2.122466 1.526236 -16.283275 60.800561 -0.350143 -1.032559 -24.780758 0.837697 -8.482883 -0.000003 -0.000002 0.000002 -0.000000 0.000001 -0.000003 0.000007 -0.000002 0.000003 0.038000 -0.085200 0.016200 0.000002 -0.000002 -0.000002 
-0.000114 0.203506 0.006138 29.540254 2.277647 80.481519 0.000000 -0.000001 -0.000001 -0.000000 0.000000 -0.000000 -0.000001 -0.000002 0.000000 0.000000 -0.000000 -0.000001 0.000924 0.155147 0.009274 -2.803243 -0.023137 -28.933624 0.019937 0.078966 0.057518 7.901690 4.555411 43.154559 0.177024 -0.020465 -0.095062 -0.894178 3.903217 14.265799 14.426418 -18.057528 68.061134 -0.000004 -0.000002 -0.000002 0.021770 -0.038291 0.012954 -0.000001 -0.000000 0.000003 -0.000005 -0.000003 0.000001 0.000002 0.000001 0.000007 0.000000 0.000001 -0.000002 -0.009090 -0.002348 -0.024224 -0.000003 0.000000 -0.000003 0.000003 -0.000000 0.000005 0.000000 0.000000 0.000003 0.032823 -0.025104 0.012281 -0.000001 -0.000003 0.000007 -0.000002 0.000001 -0.000003 -0.000001 0.000000 0.000001 0.000001 0.000003 0.000001 0.039230 -0.011402 0.008390 -0.000001 0.000000 0.000008 0.000003 0.000000 -0.000000 -0.000002 0.000003 0.000003 0.000003 -0.000000 -0.000000 0.043417 0.002450 0.002889 -0.000001 0.000001 0.000002 0.000002 -0.000003 -0.000002 0.000000 0.000001 0.000001 -0.000004 -0.000002 0.000001 -0.016662 0.078957 0.057696 -1.368564 1.631479 -33.520222 -0.176972 -0.020537 -0.095144 -13.262176 1.559951 6.709379 26.622626 9.601066 -92.527500 -0.000003 -0.000000 0.000002 -0.021773 -0.038278 0.012988 -0.000001 -0.000002 0.000002 -0.000005 0.000004 0.000001 -0.000002 -0.000003 -0.000006 -0.000003 0.000007 -0.000003 0.009114 -0.002381 -0.024211 -0.000000 0.000001 0.000001 0.000001 -0.000001 0.000000 -0.000000 -0.000003 -0.000008 -0.032828 -0.025095 0.012286 0.000001 -0.000000 -0.000001 0.000001 0.000004 -0.000001 0.000002 -0.000002 -0.000000 -0.000001 0.000006 -0.000007 -0.039192 -0.011488 0.008390 0.000001 -0.000001 -0.000000 -0.000002 0.000000 -0.000003 0.000003 -0.000001 0.000002 -0.000001 -0.000004 0.000003 -0.043421 0.002443 0.002845 0.000002 -0.000002 -0.000003 -0.000000 0.000004 -0.000001 0.000001 -0.000000 -0.000000 -0.000000 0.000000 0.000003 0.000000 0.000000 -0.000000 -2.213451 1.429528 -16.257022 67.616510 -0.705098 -12.392678 -20.141548 -0.090052 0.910768 0.000002 0.000002 -0.000001 -0.000004 -0.000004 0.000000 0.000002 -0.000000 -0.000001 -0.038000 -0.085200 0.016200 0.000000 -0.000001 0.000002 0.000000 0.000000 -0.000000 -2.112350 1.401181 -15.025335 63.089535 -0.361510 -1.102595 -23.818463 0.881389 -8.929068 0.000003 -0.000003 -0.000000 -0.000001 -0.000003 -0.000002 0.000007 -0.000001 -0.000001 0.038000 -0.085200 0.016200 0.000002 -0.000003 0.000001 
